<svg width="144" height="135" viewBox="0 0 144 135" fill="none" xmlns="http://www.w3.org/2000/svg">
<path d="M123.576 0H20.5764C9.53072 0 0.576416 8.9543 0.576416 20V115C0.576416 126.046 9.53072 135 20.5764 135H123.576C134.622 135 143.576 126.046 143.576 115V20C143.576 8.9543 134.622 0 123.576 0Z" fill="white"/>
<path d="M72.0795 29.5323C72.5201 29.5323 72.9509 29.4014 73.3173 29.1561C73.6837 28.9108 73.9693 28.5621 74.138 28.1542C74.3067 27.7463 74.3509 27.2974 74.2651 26.8643C74.1792 26.4312 73.9671 26.0333 73.6557 25.721C73.3442 25.4086 72.9473 25.1958 72.5152 25.1095C72.083 25.0232 71.635 25.0672 71.2278 25.2359C70.8206 25.4047 70.4725 25.6907 70.2275 26.0576C69.9825 26.4246 69.8515 26.8562 69.8512 27.2978C69.851 27.5911 69.9085 27.8817 70.0204 28.1528C70.1323 28.4239 70.2964 28.6702 70.5033 28.8777C70.7102 29.0852 70.9559 29.2499 71.2264 29.3622C71.4968 29.4745 71.7867 29.5323 72.0795 29.5323V29.5323ZM72.0795 26.5545C72.2265 26.5545 72.3702 26.5982 72.4924 26.68C72.6147 26.7619 72.7099 26.8782 72.7662 27.0143C72.8224 27.1504 72.8372 27.3002 72.8085 27.4447C72.7798 27.5891 72.709 27.7219 72.6051 27.826C72.5011 27.9302 72.3687 28.0011 72.2245 28.0299C72.0803 28.0586 71.9309 28.0439 71.795 27.9875C71.6592 27.9311 71.5431 27.8356 71.4615 27.7132C71.3798 27.5907 71.3362 27.4467 71.3362 27.2994C71.3362 27.1018 71.4145 26.9124 71.5539 26.7727C71.6933 26.633 71.8823 26.5545 72.0795 26.5545V26.5545Z" fill="#FE0134"/>
<path d="M78.0243 28.786C78.8453 28.786 79.5109 28.119 79.5109 27.2963C79.5109 26.4736 78.8453 25.8066 78.0243 25.8066C77.2033 25.8066 76.5377 26.4736 76.5377 27.2963C76.5377 28.119 77.2033 28.786 78.0243 28.786Z" fill="#FE0134"/>
<path d="M66.1379 28.786C66.959 28.786 67.6245 28.119 67.6245 27.2963C67.6245 26.4736 66.959 25.8066 66.1379 25.8066C65.3169 25.8066 64.6514 26.4736 64.6514 27.2963C64.6514 28.119 65.3169 28.786 66.1379 28.786Z" fill="#FE0134"/>
<path d="M26.0178 74.1996H31.4864C31.5963 74.2036 31.7014 74.2459 31.7834 74.3193L33.5811 76.1365C33.9441 76.4876 34.4288 76.6838 34.9333 76.6838C35.4378 76.6838 35.9226 76.4876 36.2855 76.1365L38.0833 74.3193C38.1653 74.2459 38.2704 74.2036 38.3803 74.1996H46.8204V107.703C46.8204 109.678 47.6032 111.572 48.9965 112.968C50.3898 114.364 52.2796 115.148 54.2501 115.148H89.9121C91.8826 115.148 93.7724 114.364 95.1657 112.968C96.5591 111.572 97.3418 109.678 97.3418 107.703V74.1996H104.099C104.412 74.1929 104.72 74.1235 105.006 73.9956C105.292 73.8677 105.549 73.6838 105.763 73.4548L107.115 72.1005C107.281 71.9368 107.505 71.8451 107.738 71.8451C107.972 71.8451 108.196 71.9368 108.362 72.1005L109.714 73.4548C109.931 73.6756 110.19 73.851 110.476 73.971C110.762 74.091 111.068 74.1532 111.378 74.154H118.135C118.332 74.154 118.521 74.0755 118.661 73.9358C118.8 73.7961 118.878 73.6067 118.878 73.4091C118.878 73.2116 118.8 73.0221 118.661 72.8824C118.521 72.7428 118.332 72.6643 118.135 72.6643H111.389C111.275 72.6651 111.163 72.643 111.058 72.5995C110.954 72.5559 110.859 72.4918 110.779 72.4107L109.412 71.0565C109.194 70.8368 108.935 70.6625 108.649 70.5435C108.363 70.4246 108.057 70.3634 107.748 70.3634C107.439 70.3634 107.132 70.4246 106.847 70.5435C106.561 70.6625 106.302 70.8368 106.084 71.0565L104.717 72.4107C104.637 72.4918 104.542 72.5559 104.437 72.5995C104.333 72.643 104.22 72.6651 104.107 72.6643H97.3497V27.2968C97.3497 26.3184 97.1572 25.3496 96.7834 24.4458C96.4095 23.542 95.8615 22.7209 95.1708 22.0294C94.48 21.338 93.6601 20.7897 92.7578 20.416C91.8554 20.0423 90.8885 19.8505 89.9121 19.8516H54.2501C52.2796 19.8516 50.3898 20.636 48.9965 22.0322C47.6032 23.4285 46.8204 25.3222 46.8204 27.2968V33.2524C46.4261 33.2524 46.048 33.4093 45.7692 33.6887C45.4904 33.9681 45.3338 34.347 45.3338 34.742V40.6976C45.3338 41.0927 45.4904 41.4716 45.7692 41.751C46.048 42.0303 46.4261 42.1873 46.8204 42.1873V45.1651C46.6252 45.1651 46.4319 45.2036 46.2515 45.2785C46.0711 45.3533 45.9073 45.4631 45.7692 45.6014C45.6312 45.7397 45.5217 45.9039 45.447 46.0847C45.3723 46.2654 45.3338 46.4591 45.3338 46.6547V52.6056C45.3338 53.0007 45.4904 53.3796 45.7692 53.6589C46.048 53.9383 46.4261 54.0953 46.8204 54.0953V72.7084H38.3803C38.1306 72.7061 37.8832 72.7551 37.6532 72.8523C37.4232 72.9495 37.2155 73.0929 37.043 73.2737L35.2295 75.0783C35.1908 75.1178 35.1446 75.1492 35.0936 75.1706C35.0426 75.1921 34.9878 75.2031 34.9325 75.2031C34.8772 75.2031 34.8225 75.1921 34.7715 75.1706C34.7205 75.1492 34.6743 75.1178 34.6355 75.0783L32.8174 73.2768C32.6448 73.0961 32.4372 72.9527 32.2072 72.8554C31.9772 72.7582 31.7297 72.7092 31.4801 72.7115H26.0178C25.9202 72.7115 25.8236 72.7308 25.7334 72.7682C25.6432 72.8056 25.5613 72.8605 25.4922 72.9297C25.4232 72.9988 25.3685 73.0809 25.3311 73.1713C25.2938 73.2617 25.2745 73.3585 25.2745 73.4564C25.2745 73.5542 25.2938 73.651 25.3311 73.7414C25.3685 73.8318 25.4232 73.9139 25.4922 73.983C25.5613 74.0522 25.6432 74.1071 25.7334 74.1445C25.8236 74.1819 25.9202 74.2012 26.0178 74.2012V74.1996ZM94.375 107.702C94.375 108.288 94.2597 108.869 94.0356 109.411C93.8116 109.953 93.4832 110.446 93.0692 110.861C92.6552 111.275 92.1638 111.605 91.6229 111.829C91.082 112.054 90.5023 112.169 89.9168 112.169H54.2501C53.6645 112.17 53.0846 112.054 52.5434 111.83C52.0023 111.606 51.5105 111.277 51.0963 110.862C50.682 110.448 50.3533 109.955 50.1289 109.413C49.9046 108.871 49.789 108.29 49.7888 107.703V74.1996H58.4065C60.0625 76.9468 62.3633 79.247 65.1087 80.9C66.4901 81.8025 67.775 82.8452 68.943 84.0117C69.5735 84.7099 70.4125 85.1849 71.3347 85.3659V92.8111C71.3343 93.001 71.4063 93.1839 71.536 93.3223C71.6657 93.4608 71.8433 93.5443 72.0324 93.556V93.556C72.212 93.5548 72.3854 93.4897 72.5215 93.3723C72.6577 93.2549 72.7477 93.0929 72.7757 92.9151L73.8301 84.9486C74.3321 84.712 74.7856 84.3835 75.1674 83.9802C76.3507 82.8217 77.6504 81.789 79.0457 80.8984C81.7911 79.2454 84.0918 76.9453 85.7478 74.198H94.3655L94.375 107.702ZM60.1933 68.9826C60.1933 65.5875 61.2178 61.5374 66.1364 61.5374C67.5532 61.5225 68.9211 62.0561 69.955 63.027L67.2065 74.9397L65.9494 73.68C65.3175 73.0506 64.4628 72.6973 63.5718 72.6973H61.0403C60.4742 71.5445 60.1842 70.2753 60.1933 68.9905V68.9826ZM83.1204 72.7052H79.1085C78.6126 72.7014 78.1378 72.5037 77.7854 72.1541L76.2988 70.6644C76.1423 70.503 75.9433 70.3894 75.725 70.3367C75.5067 70.2841 75.2779 70.2945 75.0653 70.3668C74.8508 70.4373 74.6605 70.5669 74.516 70.7406C74.3715 70.9144 74.2787 71.1253 74.2481 71.3494L72.881 81.6386V64.2837C73.0156 64.2166 73.1404 64.1313 73.2518 64.0301C73.8001 63.2736 74.5163 62.6551 75.344 62.2236C76.1717 61.7921 77.0882 61.5593 78.0211 61.5437C82.9397 61.5437 83.9643 65.5938 83.9643 68.9889C83.9767 70.2788 83.6878 71.5536 83.1204 72.7115V72.7052ZM82.2137 74.1949C80.804 75.8389 79.163 77.2685 77.3423 78.4388C76.3617 79.1238 75.3654 79.8387 74.4603 80.6134L75.5901 72.0659L76.7341 73.2123C77.366 73.8417 78.2207 74.1949 79.1117 74.1949H82.2137ZM63.5655 74.1949C64.0614 74.1987 64.5362 74.3965 64.8887 74.746L66.4601 76.3097C66.6156 76.4674 66.8105 76.5804 67.0245 76.6366C67.2385 76.6929 67.4636 76.6905 67.6763 76.6296C67.8891 76.5688 68.0815 76.4517 68.2336 76.2907C68.3857 76.1297 68.4917 75.9307 68.5407 75.7145L71.2011 64.1892L71.3347 64.2789V82.1519C71.2566 82.1159 71.1862 82.0651 71.1273 82.0023C69.8159 80.6848 68.3719 79.5069 66.8184 78.4876C64.9977 77.3173 63.3567 75.8877 61.947 74.2437L63.5655 74.1949ZM54.2501 22.8293H89.9121C90.9763 22.8144 92.0107 23.1815 92.8284 23.8643C93.646 24.547 94.1929 25.5004 94.3703 26.552H89.9121C88.9521 26.5639 88.0069 26.7906 87.1455 27.2156C86.2842 27.6407 85.5285 28.2532 84.9338 29.0085C84.4687 29.6169 83.8736 30.1132 83.1922 30.4611C82.5108 30.8091 81.7603 30.9999 80.9958 31.0194H63.1648C62.4003 30.9999 61.6498 30.8091 60.9684 30.4611C60.287 30.1132 59.692 29.6169 59.2268 29.0085C58.6321 28.2532 57.8765 27.6407 57.0151 27.2156C56.1538 26.7906 55.2086 26.5639 54.2485 26.552H49.8658C50.0411 25.5132 50.577 24.57 51.379 23.8888C52.1809 23.2077 53.1973 22.8324 54.2485 22.8293H54.2501ZM49.7888 28.0401H54.247C55.0115 28.0596 55.762 28.2504 56.4434 28.5984C57.1248 28.9463 57.7198 29.4426 58.185 30.051C58.7797 30.8063 59.5353 31.4188 60.3967 31.8439C61.258 32.2689 62.2032 32.4956 63.1633 32.5075H80.9958C81.9558 32.4956 82.9011 32.2689 83.7624 31.8439C84.6237 31.4188 85.3794 30.8063 85.9741 30.051C86.4392 29.4426 87.0343 28.9463 87.7157 28.5984C88.3971 28.2504 89.1476 28.0596 89.9121 28.0401H94.3703V72.7115H86.356C86.7451 71.5093 86.9408 70.2527 86.9358 68.9889C86.9358 62.4664 83.6075 58.5659 78.0211 58.5659C76.1349 58.5514 74.3001 59.1818 72.8197 60.3532V57.0778C72.818 56.8957 72.751 56.7203 72.631 56.5835C72.511 56.4468 72.346 56.3579 72.166 56.3329C71.982 56.3102 71.7962 56.3572 71.645 56.4647C71.4938 56.5722 71.3882 56.7325 71.3488 56.914L70.6888 59.8918C69.3334 59.0184 67.7542 58.5578 66.1427 58.5659C60.5563 58.5659 57.228 62.4664 57.228 68.9889C57.223 70.2527 57.4187 71.5093 57.8078 72.7115H49.7888V28.0401Z" fill="#FE0134"/>
</svg>
