<svg xmlns="http://www.w3.org/2000/svg" width="92" height="86" viewBox="0 0 92 86">
  <g id="Group_64" data-name="Group 64" transform="translate(-0.354 0.422)">
    <rect id="Rectangle_152" data-name="Rectangle 152" width="92" height="86" rx="20" transform="translate(0.354 -0.422)" fill="#fff"/>
    <g id="Group_59" data-name="Group 59" transform="translate(13.723 15.299)">
      <g id="Group_41" data-name="Group 41" transform="translate(0 0)">
        <g id="Group_48" data-name="Group 48">
          <path id="Path_50" data-name="Path 50" d="M81.935,100.062l-2.567,6.679a.542.542,0,0,1-.505.346h-.008a.54.54,0,0,1-.5-.359L73.927,94.184l-1.87,3.95a.545.545,0,0,1-.489.308H69.977l-2.542,4.069a.529.529,0,0,1-.505.251.535.535,0,0,1-.454-.335L61,88.98l-3.8,8.07a.543.543,0,0,1-.489.311H55.02l-3.769,7.8a.547.547,0,0,1-.462.305.538.538,0,0,1-.486-.262l-3.085-5.141H44.281a.54.54,0,0,1-.462-.262l-2.785-4.639L38.191,99.8a.54.54,0,0,1-.462.259H34.02a25.393,25.393,0,1,0,50.787,0ZM74,109.789a.54.54,0,0,1,1.081,0v4.323a.54.54,0,1,1-1.081,0Zm-3.782,2.161a.54.54,0,0,1,1.081,0v2.161a.54.54,0,1,1-1.081,0Zm-3.782-2.161a.54.54,0,1,1,1.081,0v4.323a.54.54,0,1,1-1.081,0Zm-3.782,2.161a.54.54,0,0,1,1.081,0v2.161a.54.54,0,1,1-1.081,0Zm-3.782-2.161a.54.54,0,1,1,1.081,0v4.323a.54.54,0,1,1-1.081,0Zm-3.782,2.161a.54.54,0,0,1,1.081,0v2.161a.54.54,0,1,1-1.081,0Zm-3.782-2.161a.54.54,0,1,1,1.081,0v4.323a.54.54,0,1,1-1.081,0Zm-3.782,2.161a.54.54,0,0,1,1.081,0v2.161a.54.54,0,1,1-1.081,0Zm-3.782-2.161a.54.54,0,1,1,1.081,0v4.323a.54.54,0,1,1-1.081,0Z" transform="translate(-26.988 -71.424)" fill="#fe0134"/>
          <path id="Path_51" data-name="Path 51" d="M71.215,50.477a1.616,1.616,0,0,0-1.526,1.081H68.508a28.01,28.01,0,0,0-3.8-13.582l2.812-2.767a5.106,5.106,0,0,0,0-7.3,5.3,5.3,0,0,0-7.392,0L58.517,29.5l-1.61-1.586a5.268,5.268,0,0,0-4.831-1.378A27.764,27.764,0,0,0,40.416,24,28.13,28.13,0,0,0,12.323,51.557H11.142a1.621,1.621,0,1,0,0,1.081h1.181a28.1,28.1,0,1,0,56.19,0h1.175a1.621,1.621,0,1,0,1.526-2.161ZM56.148,28.685l1.991,1.956a.537.537,0,0,0,.756,0l1.991-1.956a4.2,4.2,0,0,1,5.874,0,4.016,4.016,0,0,1,0,5.752l-3.126,3.075-1.978,1.948-3.139,3.088-8.243-8.111a4.014,4.014,0,0,1-.478-5.19,4.083,4.083,0,0,1,.478-.562,4.134,4.134,0,0,1,1.9-1.067,4.22,4.22,0,0,1,1.04-.13A4.171,4.171,0,0,1,56.148,28.685Zm-20.6,14.227v1.081H25.826V42.912ZM25.826,39.67V38.589h9.726V39.67ZM40.416,79.115A27.05,27.05,0,0,1,13.4,52.638c0-.181-.005-.359-.005-.54s0-.359.005-.54A27.05,27.05,0,0,1,40.416,25.08a26.727,26.727,0,0,1,10.212,2,5.136,5.136,0,0,0-1.113.832c-.113.113-.222.23-.322.349a25.411,25.411,0,0,0-34.169,23.3h3.407l3.15-5.144a.54.54,0,0,1,.462-.259h0a.532.532,0,0,1,.459.262l3.085,5.141h2.937a.54.54,0,0,1,.462.262l2.729,4.547L35.2,49.161a.538.538,0,0,1,.486-.305h1.683l4.177-8.875a.54.54,0,0,1,.989.027l5.547,13.609,2.14-3.426a.547.547,0,0,1,.459-.254H52.23l2.286-4.825a.552.552,0,0,1,.516-.308.543.543,0,0,1,.484.359l4.374,12.4L62.064,51.9a.542.542,0,0,1,.505-.346h3.237a25.384,25.384,0,0,0-3.093-11.623l1.2-1.175a26.891,26.891,0,0,1,3.518,12.8c0,.181.005.359.005.54s0,.359-.005.54A27.05,27.05,0,0,1,40.416,79.115Z" transform="translate(-7.993 -24)" fill="#fe0134"/>
        </g>
      </g>
    </g>
  </g>
</svg>
