<svg xmlns="http://www.w3.org/2000/svg" width="55" height="55" viewBox="0 0 55 55">
  <g id="Group_38" data-name="Group 38" transform="translate(-2143 449)">
    <g id="Group_33" data-name="Group 33" transform="translate(-9 -15)">
      <rect id="Rectangle_133" data-name="Rectangle 133" width="55" height="55" rx="27.5" transform="translate(2152 -434)" fill="#fff"/>
      <g id="Group_30" data-name="Group 30" transform="translate(128 -55.994)">
        <g id="Group_27" data-name="Group 27" transform="translate(68 1.506)">
          <path id="Path_33" data-name="Path 33" d="M41.107,12.116a15.139,15.139,0,0,0-.958-5A10.107,10.107,0,0,0,37.771,3.46a10.105,10.105,0,0,0-3.652-2.379,15.143,15.143,0,0,0-5-.957c-2.2-.1-2.9-.125-8.5-.125s-6.3.024-8.5.124a15.139,15.139,0,0,0-5,.958A10.107,10.107,0,0,0,3.46,3.46,10.1,10.1,0,0,0,1.082,7.111a15.148,15.148,0,0,0-.957,5c-.1,2.2-.125,2.9-.125,8.5s.024,6.3.125,8.5a15.118,15.118,0,0,0,.958,5,10.105,10.105,0,0,0,2.378,3.651,10.1,10.1,0,0,0,3.652,2.378,15.127,15.127,0,0,0,5,.958c2.2.1,2.9.124,8.5.124s6.3-.023,8.5-.124a15.127,15.127,0,0,0,5-.958,10.538,10.538,0,0,0,6.029-6.029,15.132,15.132,0,0,0,.958-5c.1-2.2.124-2.9.124-8.5S41.207,14.314,41.107,12.116ZM37.4,28.946a11.409,11.409,0,0,1-.71,3.828,6.827,6.827,0,0,1-3.912,3.912,11.406,11.406,0,0,1-3.828.71c-2.173.1-2.826.12-8.33.12s-6.157-.021-8.33-.12a11.412,11.412,0,0,1-3.828-.71,6.393,6.393,0,0,1-2.37-1.542,6.389,6.389,0,0,1-1.542-2.37,11.406,11.406,0,0,1-.71-3.828c-.1-2.174-.12-2.826-.12-8.33s.021-6.157.12-8.33a11.421,11.421,0,0,1,.71-3.828A6.391,6.391,0,0,1,6.087,6.086,6.384,6.384,0,0,1,8.457,4.544a11.4,11.4,0,0,1,3.828-.71c2.173-.1,2.825-.12,8.33-.12h0c5.5,0,6.157.021,8.33.12a11.409,11.409,0,0,1,3.828.71,6.4,6.4,0,0,1,2.37,1.542,6.384,6.384,0,0,1,1.542,2.371,11.391,11.391,0,0,1,.71,3.828c.1,2.174.12,2.826.12,8.33S37.5,26.772,37.4,28.946Z" transform="translate(1964 -372.006)" fill="#ff004f"/>
          <path id="Path_34" data-name="Path 34" d="M71.9,61.315A10.586,10.586,0,1,0,82.485,71.9,10.586,10.586,0,0,0,71.9,61.315Zm0,17.458A6.872,6.872,0,1,1,78.771,71.9,6.872,6.872,0,0,1,71.9,78.773Z" transform="translate(1912.717 -423.292)" fill="#ff004f"/>
          <path id="Path_35" data-name="Path 35" d="M183.137,46.108a2.474,2.474,0,1,1-2.474-2.474A2.474,2.474,0,0,1,183.137,46.108Z" transform="translate(1814.957 -408.503)" fill="#ff004f"/>
        </g>
        <g id="Group_29" data-name="Group 29" transform="translate(1 -58)">
          <path id="Path_27" data-name="Path 27" d="M41.107,12.116a15.139,15.139,0,0,0-.958-5A10.107,10.107,0,0,0,37.771,3.46a10.105,10.105,0,0,0-3.652-2.379,15.143,15.143,0,0,0-5-.957c-2.2-.1-2.9-.125-8.5-.125s-6.3.024-8.5.124a15.139,15.139,0,0,0-5,.958A10.107,10.107,0,0,0,3.46,3.46,10.1,10.1,0,0,0,1.082,7.111a15.148,15.148,0,0,0-.957,5c-.1,2.2-.125,2.9-.125,8.5s.024,6.3.125,8.5a15.118,15.118,0,0,0,.958,5,10.105,10.105,0,0,0,2.378,3.651,10.1,10.1,0,0,0,3.652,2.378,15.127,15.127,0,0,0,5,.958c2.2.1,2.9.124,8.5.124s6.3-.023,8.5-.124a15.127,15.127,0,0,0,5-.958,10.538,10.538,0,0,0,6.029-6.029,15.132,15.132,0,0,0,.958-5c.1-2.2.124-2.9.124-8.5S41.207,14.314,41.107,12.116ZM37.4,28.946a11.409,11.409,0,0,1-.71,3.828,6.827,6.827,0,0,1-3.912,3.912,11.406,11.406,0,0,1-3.828.71c-2.173.1-2.826.12-8.33.12s-6.157-.021-8.33-.12a11.412,11.412,0,0,1-3.828-.71,6.393,6.393,0,0,1-2.37-1.542,6.389,6.389,0,0,1-1.542-2.37,11.406,11.406,0,0,1-.71-3.828c-.1-2.174-.12-2.826-.12-8.33s.021-6.157.12-8.33a11.421,11.421,0,0,1,.71-3.828A6.391,6.391,0,0,1,6.087,6.086,6.384,6.384,0,0,1,8.457,4.544a11.4,11.4,0,0,1,3.828-.71c2.173-.1,2.825-.12,8.33-.12h0c5.5,0,6.157.021,8.33.12a11.409,11.409,0,0,1,3.828.71,6.4,6.4,0,0,1,2.37,1.542,6.384,6.384,0,0,1,1.542,2.371,11.391,11.391,0,0,1,.71,3.828c.1,2.174.12,2.826.12,8.33S37.5,26.772,37.4,28.946Z" transform="translate(2030 -313)"/>
          <path id="Path_28" data-name="Path 28" d="M71.9,61.315A10.586,10.586,0,1,0,82.485,71.9,10.586,10.586,0,0,0,71.9,61.315Zm0,17.458A6.872,6.872,0,1,1,78.771,71.9,6.872,6.872,0,0,1,71.9,78.773Z" transform="translate(1978.717 -364.286)"/>
          <path id="Path_29" data-name="Path 29" d="M183.137,46.108a2.474,2.474,0,1,1-2.474-2.474A2.474,2.474,0,0,1,183.137,46.108Z" transform="translate(1880.957 -349.497)"/>
        </g>
      </g>
    </g>
  </g>
</svg>
