<svg xmlns="http://www.w3.org/2000/svg" width="93" height="87" viewBox="0 0 93 87">
  <g id="Group_63" data-name="Group 63" transform="translate(0.176 0.475)">
    <rect id="Rectangle_151" data-name="Rectangle 151" width="93" height="87" rx="20" transform="translate(-0.176 -0.475)" fill="#fff"/>
    <g id="Group_58" data-name="Group 58" transform="translate(21.936 16.483)">
      <g id="exercise-plan-consistant" transform="translate(0 0)">
        <g id="Group_39" data-name="Group 39" transform="translate(0 0)">
          <path id="Path_36" data-name="Path 36" d="M66.668,56.65h-1.02a2.549,2.549,0,0,0-1.53.51,2.555,2.555,0,0,0-2.551-2.551H58.506a2.555,2.555,0,0,0-2.551,2.551v5.548c-.339-.041-.681-.077-1.02-.107V30.632a4.6,4.6,0,0,0-4.426-4.589,3.569,3.569,0,0,0-6.451,0H40.3a3.568,3.568,0,0,0-6.448,0H29.08a3.568,3.568,0,0,0-6.448,0H18.877a3.569,3.569,0,0,0-6.451,0A4.6,4.6,0,0,0,8,30.632V68.384a4.6,4.6,0,0,0,4.591,4.591H28.457a2.557,2.557,0,0,0,2.5,2.041h1.02a2.548,2.548,0,0,0,1.53-.51,2.555,2.555,0,0,0,2.551,2.551H39.12a2.555,2.555,0,0,0,2.551-2.551v-1.53h8.673A4.6,4.6,0,0,0,54.879,69.1c.36-.038.717-.082,1.076-.133v5.538a2.555,2.555,0,0,0,2.551,2.551h3.061a2.555,2.555,0,0,0,2.551-2.551,2.548,2.548,0,0,0,1.53.51h1.02a2.555,2.555,0,0,0,2.551-2.551V59.2a2.555,2.555,0,0,0-2.551-2.551Zm-33.16.51a2.549,2.549,0,0,0-1.53-.51h-1.02A2.555,2.555,0,0,0,28.406,59.2H27.9V52.569h7.142v2.255A2.551,2.551,0,0,0,33.508,57.161ZM18.713,66.854H11.571V60.222h7.142Zm1.02-21.937h7.142v6.632H19.734Zm-1.02,6.632H11.571V44.917h7.142Zm-7.142,1.02h7.142V59.2H11.571Zm8.163,7.652h7.142v6.632H19.734Zm7.142-1.02H19.734V52.569h7.142Zm8.163-15.3H27.9V37.264h7.142Zm1.02-6.632H43.2V43.9H36.059Zm8.163,0h7.142V43.9H44.221Zm0,7.652h7.142v6.632H44.221Zm0,7.652h7.142V59.2H44.221ZM27.9,44.917h7.142v6.632H27.9Zm8.163,0H43.2v6.632H36.059Zm0,7.652H43.2V59.2h-1.53V57.161A2.555,2.555,0,0,0,39.12,54.61H36.059ZM47.282,25.021a2.551,2.551,0,0,1,2.038,1.02H45.244A2.547,2.547,0,0,1,47.282,25.021Zm-10.2,0a2.551,2.551,0,0,1,2.038,1.02H35.041A2.547,2.547,0,0,1,37.079,25.021Zm-11.224,0a2.551,2.551,0,0,1,2.038,1.02H23.818A2.547,2.547,0,0,1,25.856,25.021Zm-10.2,0a2.551,2.551,0,0,1,2.038,1.02H13.614A2.547,2.547,0,0,1,15.652,25.021ZM9.02,30.632a3.575,3.575,0,0,1,3.571-3.571H18.15a2.422,2.422,0,0,1,.054.51,2.549,2.549,0,0,1-1.064,2.074,1.782,1.782,0,0,0-3.219.57.476.476,0,0,0-.023.1,1.621,1.621,0,0,0-.031.315,1.786,1.786,0,0,0,3.569.031,3.564,3.564,0,0,0,1.788-3.092,3.724,3.724,0,0,0-.036-.51h9.165a2.422,2.422,0,0,1,.054.51,2.549,2.549,0,0,1-1.064,2.074,1.782,1.782,0,0,0-3.219.57.476.476,0,0,0-.023.1,1.621,1.621,0,0,0-.031.315,1.786,1.786,0,0,0,3.569.031,3.564,3.564,0,0,0,1.788-3.092,3.725,3.725,0,0,0-.036-.51H39.576a2.422,2.422,0,0,1,.054.51,2.549,2.549,0,0,1-1.064,2.074,1.782,1.782,0,0,0-3.219.57.477.477,0,0,0-.023.1,1.621,1.621,0,0,0-.031.315,1.786,1.786,0,0,0,3.569.031,3.564,3.564,0,0,0,1.788-3.092,3.722,3.722,0,0,0-.036-.51H49.78a2.42,2.42,0,0,1,.054.51,2.549,2.549,0,0,1-1.064,2.074,1.782,1.782,0,0,0-3.219.57.476.476,0,0,0-.023.1,1.62,1.62,0,0,0-.031.315,1.786,1.786,0,0,0,3.569.031,3.564,3.564,0,0,0,1.788-3.092,3.684,3.684,0,0,0-.031-.477,3.576,3.576,0,0,1,3.092,3.538v3.061H9.02Zm6.632.51a3.764,3.764,0,0,0,.612-.051.763.763,0,0,1-1.224,0A3.5,3.5,0,0,0,15.652,31.142Zm-.515-1.074a.76.76,0,0,1,1.031,0A2.6,2.6,0,0,1,15.137,30.069Zm10.718,1.074a3.764,3.764,0,0,0,.612-.051.763.763,0,0,1-1.224,0A3.5,3.5,0,0,0,25.856,31.142Zm-.515-1.074a.76.76,0,0,1,1.031,0A2.6,2.6,0,0,1,25.34,30.069Zm11.739,1.074a3.764,3.764,0,0,0,.612-.051.763.763,0,0,1-1.224,0,3.5,3.5,0,0,0,.612.054Zm-.515-1.074a.76.76,0,0,1,1.031,0A2.6,2.6,0,0,1,36.564,30.069Zm10.718,1.074a3.764,3.764,0,0,0,.612-.051.763.763,0,0,1-1.224,0A3.5,3.5,0,0,0,47.282,31.142Zm-.515-1.074a.76.76,0,0,1,1.031,0A2.6,2.6,0,0,1,46.767,30.069ZM31.978,74h-1.02a1.53,1.53,0,0,1-1.53-1.53V59.2a1.53,1.53,0,0,1,1.53-1.53h1.02a1.53,1.53,0,0,1,1.53,1.53V72.465A1.53,1.53,0,0,1,31.978,74Zm8.673.51a1.53,1.53,0,0,1-1.53,1.53H36.059a1.53,1.53,0,0,1-1.53-1.53V57.161a1.533,1.533,0,0,1,1.53-1.53H39.12a1.53,1.53,0,0,1,1.53,1.53Zm13.764-6.38a52.864,52.864,0,0,1-12.744-.186v-4.2a62.53,62.53,0,0,1,12.7-.161q.792.069,1.584.161v4.2C55.442,68.009,54.93,68.073,54.414,68.127Zm8.683,6.38a1.53,1.53,0,0,1-1.53,1.53H58.506a1.53,1.53,0,0,1-1.53-1.53V57.161a1.53,1.53,0,0,1,1.53-1.53h3.061a1.53,1.53,0,0,1,1.53,1.53Zm5.1-2.041A1.53,1.53,0,0,1,66.668,74h-1.02a1.53,1.53,0,0,1-1.53-1.53V59.2a1.53,1.53,0,0,1,1.53-1.53h1.02A1.53,1.53,0,0,1,68.2,59.2Z" transform="translate(-8 -24)" fill="#fe0134"/>
          <path id="Path_37" data-name="Path 37" d="M158.818,108.054a.51.51,0,0,0-.684.23l-1.768,3.533-1.551-1.163a.51.51,0,0,0-.612.816l2.041,1.53a.513.513,0,0,0,.306.1.612.612,0,0,0,.117-.013.517.517,0,0,0,.339-.27l2.041-4.081A.51.51,0,0,0,158.818,108.054Z" transform="translate(-116.758 -86.574)" fill="#fe0134"/>
          <path id="Path_38" data-name="Path 38" d="M158.956,83.956a.5.5,0,0,0,0-.719l-1.681-1.681,1.681-1.681a.509.509,0,1,0-.719-.719l-1.681,1.681-1.681-1.681a.509.509,0,1,0-.719.719l1.681,1.681-1.681,1.681a.509.509,0,1,0,.719.719l1.681-1.681,1.681,1.681a.505.505,0,0,0,.719,0Z" transform="translate(-116.763 -64.975)" fill="#fe0134"/>
          <path id="Path_39" data-name="Path 39" d="M126.818,78.054a.51.51,0,0,0-.684.23l-1.768,3.533-1.551-1.163a.51.51,0,1,0-.612.816L124.245,83a.513.513,0,0,0,.306.1.611.611,0,0,0,.117-.013.518.518,0,0,0,.339-.27l2.041-4.081A.51.51,0,0,0,126.818,78.054Z" transform="translate(-92.921 -64.226)" fill="#fe0134"/>
          <path id="Path_40" data-name="Path 40" d="M126.818,108.054a.51.51,0,0,0-.684.23l-1.768,3.533-1.551-1.163a.51.51,0,0,0-.612.816l2.041,1.53a.513.513,0,0,0,.306.1.614.614,0,0,0,.117-.013.518.518,0,0,0,.339-.27l2.041-4.081A.51.51,0,0,0,126.818,108.054Z" transform="translate(-92.921 -86.574)" fill="#fe0134"/>
          <path id="Path_41" data-name="Path 41" d="M64.818,108.054a.51.51,0,0,0-.684.23l-1.768,3.533-1.551-1.163a.51.51,0,1,0-.612.816L62.245,113a.513.513,0,0,0,.306.1.612.612,0,0,0,.117-.013.517.517,0,0,0,.339-.27l2.041-4.081A.51.51,0,0,0,64.818,108.054Z" transform="translate(-46.736 -86.574)" fill="#fe0134"/>
          <path id="Path_42" data-name="Path 42" d="M26.2,111.428l2.041,1.53a.513.513,0,0,0,.306.1.614.614,0,0,0,.117-.013.518.518,0,0,0,.339-.27l2.041-4.081a.51.51,0,1,0-.913-.454l-1.768,3.533-1.551-1.163a.51.51,0,1,0-.612.816Z" transform="translate(-21.408 -86.532)" fill="#fe0134"/>
          <path id="Path_43" data-name="Path 43" d="M30.818,138.054a.51.51,0,0,0-.684.23l-1.768,3.533-1.551-1.163a.51.51,0,1,0-.612.816L28.245,143a.513.513,0,0,0,.306.1.61.61,0,0,0,.117-.013.518.518,0,0,0,.339-.27l2.041-4.081A.51.51,0,0,0,30.818,138.054Z" transform="translate(-21.408 -108.922)" fill="#fe0134"/>
        </g>
      </g>
    </g>
  </g>
</svg>
