<svg width="143" height="135" viewBox="0 0 143 135" fill="none" xmlns="http://www.w3.org/2000/svg">
<path d="M123 0H20C8.9543 0 0 8.9543 0 20V115C0 126.046 8.9543 135 20 135H123C134.046 135 143 126.046 143 115V20C143 8.9543 134.046 0 123 0Z" fill="white"/>
<path d="M121.126 95.6684C119.732 95.0684 112.647 92.1014 109.831 93.1544C107.721 93.9865 105.732 95.0963 103.916 96.4544C102.542 94.9072 100.834 93.6917 98.9225 92.8992C97.0106 92.1068 94.944 91.7582 92.878 91.8794V69.4054L94.41 67.8714C94.4943 67.7888 94.5611 67.6901 94.6067 67.5812C94.6522 67.4723 94.6754 67.3554 94.675 67.2374V57.5454C94.6754 57.4274 94.6522 57.3105 94.6067 57.2016C94.5611 57.0927 94.4943 56.9941 94.41 56.9114L92.879 55.3774V27.7574C92.8774 26.5644 92.4028 25.4208 91.5593 24.5772C90.7157 23.7336 89.572 23.259 88.379 23.2574H79.379V22.3574C79.379 22.1187 79.2842 21.8898 79.1154 21.721C78.9466 21.5522 78.7177 21.4574 78.479 21.4574H64.001C63.7926 20.4418 63.2403 19.5292 62.4373 18.8734C61.6343 18.2176 60.6298 17.8588 59.593 17.8574H54.193C53.1563 17.8588 52.1517 18.2176 51.3487 18.8734C50.5458 19.5292 49.9935 20.4418 49.785 21.4574H35.304C35.0653 21.4574 34.8364 21.5522 34.6676 21.721C34.4989 21.8898 34.404 22.1187 34.404 22.3574V23.2574H25.404C24.2121 23.2606 23.07 23.7359 22.2277 24.5793C21.3854 25.4227 20.9116 26.5655 20.91 27.7574V103.328C20.9116 104.521 21.3862 105.665 22.2298 106.509C23.0734 107.352 24.217 107.827 25.41 107.828H81.467C90.791 113.847 98.33 115.084 102.959 115.084C104.547 115.109 106.132 114.937 107.677 114.572C108.298 115.211 108.918 115.863 109.512 116.502C110.073 117.135 110.756 117.649 111.519 118.013C112.282 118.377 113.111 118.584 113.956 118.621C114.157 118.621 114.357 118.606 114.556 118.576H120.768C121.007 118.576 121.236 118.482 121.404 118.313C121.573 118.144 121.668 117.915 121.668 117.676V96.4954C121.668 96.3197 121.617 96.1478 121.521 96.0008C121.424 95.8539 121.287 95.7383 121.126 95.6684V95.6684ZM83.446 86.0574C81.076 81.9104 80.446 75.2434 80.437 75.1804C80.4328 75.1145 80.4193 75.0496 80.397 74.9874H85.682V93.3024C85.142 93.4914 84.661 93.6844 84.243 93.8604C84.683 91.3574 84.76 88.3574 83.446 86.0574ZM70.046 100.627C70.154 101.396 70.246 102.017 70.307 102.427H27.21C26.9713 102.427 26.7424 102.333 26.5736 102.164C26.4049 101.995 26.31 101.766 26.31 101.527V29.5524C26.31 29.3137 26.4049 29.0848 26.5736 28.916C26.7424 28.7472 26.9713 28.6524 27.21 28.6524H35.31C35.5691 29.2802 35.8854 29.8827 36.255 30.4524C37.3102 32.1074 38.7654 33.4698 40.4864 34.4136C42.2073 35.3574 44.1383 35.8523 46.101 35.8524H67.69C69.6529 35.8524 71.5842 35.3577 73.3053 34.4138C75.0264 33.47 76.4818 32.1076 77.537 30.4524C77.9063 29.8827 78.2223 29.2802 78.481 28.6524H86.581C86.8197 28.6524 87.0486 28.7472 87.2174 28.916C87.3862 29.0848 87.481 29.3137 87.481 29.5524V49.9924C87.3263 49.8622 87.1303 49.7913 86.928 49.7924H77.239C77.121 49.792 77.0041 49.8153 76.8952 49.8608C76.7863 49.9063 76.6877 49.9732 76.605 50.0574L69.754 56.9084C69.6698 56.9911 69.6029 57.0897 69.5574 57.1986C69.5119 57.3075 69.4887 57.4244 69.489 57.5424V67.2314C69.4887 67.3494 69.5119 67.4663 69.5574 67.5752C69.6029 67.6841 69.6698 67.7828 69.754 67.8654L72.934 71.0454C72.34 73.0874 69.834 81.7874 69.151 85.7184C68.576 89.0574 69.51 96.7344 70.051 100.625L70.046 100.627ZM54.196 25.0574V23.2574C54.196 23.0187 54.2909 22.7898 54.4596 22.621C54.6284 22.4522 54.8573 22.3574 55.096 22.3574H58.696C58.9347 22.3574 59.1636 22.4522 59.3324 22.621C59.5012 22.7898 59.596 23.0187 59.596 23.2574V25.0574H54.196ZM119.867 116.772H114.467C114.396 116.773 114.325 116.78 114.256 116.794C114.188 116.812 112.677 117.122 110.806 115.251C110.064 114.451 109.272 113.627 108.499 112.836C105.823 110.11 103.299 107.736 103.268 107.712C103.182 107.632 103.081 107.568 102.97 107.527C102.859 107.485 102.742 107.465 102.623 107.469C102.505 107.473 102.389 107.5 102.281 107.549C102.174 107.597 102.076 107.667 101.996 107.753C101.915 107.839 101.852 107.94 101.81 108.051C101.768 108.162 101.748 108.279 101.752 108.398C101.756 108.516 101.783 108.632 101.832 108.74C101.88 108.847 101.95 108.945 102.036 109.025C102.067 109.047 103.936 110.802 106.161 113.025C102.945 113.511 93.985 113.866 82.092 106.08C81.624 105.774 81.156 105.459 80.68 105.126C79.0681 104.011 77.2155 103.291 75.273 103.026C74.191 102.848 73.1289 102.565 72.102 102.18C72.066 101.955 72.021 101.658 71.972 101.303C71.482 97.9524 70.348 89.3694 70.924 86.0274C71.5 82.6854 73.524 75.5064 74.392 72.5014L76.605 74.7144C76.6877 74.7987 76.7863 74.8655 76.8952 74.911C77.0041 74.9566 77.121 74.9798 77.239 74.9794H78.692C78.6496 75.0926 78.6342 75.2142 78.647 75.3344C78.674 75.6224 79.317 82.4504 81.886 86.9444C83.231 89.3014 82.732 92.7834 82.111 95.2074C81.8672 96.1615 81.5666 97.1001 81.211 98.0184C81.1654 98.1274 81.1418 98.2443 81.1415 98.3624C81.1412 98.4805 81.1644 98.5975 81.2096 98.7066C81.2547 98.8158 81.3211 98.9149 81.4047 98.9983C81.4884 99.0816 81.5877 99.1476 81.697 99.1924C81.8048 99.2399 81.9213 99.2644 82.039 99.2644C82.2168 99.2647 82.3907 99.2124 82.5388 99.114C82.6869 99.0155 82.8025 98.8755 82.871 98.7114C83.2177 97.8421 83.5123 96.9528 83.753 96.0484C85.813 94.9864 96.532 90.0344 103.063 98.2214C103.324 98.5494 103.58 98.8964 103.828 99.2694C103.967 99.4525 104.17 99.5756 104.397 99.6136C104.623 99.6515 104.855 99.6015 105.046 99.4737C105.237 99.3459 105.372 99.15 105.423 98.9261C105.474 98.7023 105.438 98.4673 105.321 98.2694C105.227 98.1304 105.132 97.9954 105.038 97.8604C106.706 96.618 108.53 95.6002 110.463 94.8334C112.024 94.2484 116.837 95.8234 119.868 97.0824L119.867 116.772Z" fill="#FE0134"/>
<path d="M98.6001 105.133C92.7391 105.97 87.1481 102.173 87.0941 102.133C86.8978 101.997 86.6556 101.945 86.4206 101.987C86.1856 102.03 85.9772 102.164 85.8411 102.36C85.705 102.556 85.6525 102.799 85.6951 103.034C85.7377 103.269 85.8718 103.477 86.0681 103.613C89.2772 105.723 93.0031 106.913 96.8411 107.054C97.5139 107.056 98.186 107.009 98.8521 106.914C98.9725 106.902 99.0891 106.865 99.195 106.806C99.3009 106.748 99.3939 106.669 99.4685 106.573C99.543 106.478 99.5975 106.368 99.6288 106.252C99.6601 106.135 99.6675 106.013 99.6506 105.893C99.6336 105.773 99.5927 105.658 99.5302 105.554C99.4677 105.45 99.3849 105.361 99.2868 105.29C99.1888 105.219 99.0774 105.168 98.9594 105.141C98.8414 105.114 98.7192 105.112 98.6001 105.133V105.133Z" fill="#FE0134"/>
<path d="M70.4921 38.9991C70.3725 38.793 70.1761 38.6428 69.9459 38.5813C69.7157 38.5198 69.4705 38.5521 69.2641 38.6711C67.5051 39.6791 64.7251 41.3201 62.1031 43.0481C60.4211 42.4591 58.2801 43.0571 56.6031 43.7811C57.4221 41.9231 57.4171 40.7541 56.6481 40.0431C55.8431 39.3011 54.2961 38.9681 48.9201 42.1211C46.1531 43.7481 43.6521 45.5481 43.5491 45.6201C43.4467 45.6865 43.3588 45.773 43.2909 45.8744C43.2229 45.9757 43.1763 46.0899 43.1539 46.2098C43.1315 46.3298 43.1336 46.453 43.1603 46.5721C43.187 46.6912 43.2376 46.8036 43.3091 46.9025C43.3806 47.0014 43.4714 47.0848 43.5761 47.1475C43.6808 47.2102 43.7972 47.2509 43.9181 47.2673C44.0391 47.2836 44.1621 47.2752 44.2796 47.2425C44.3972 47.2098 44.5069 47.1535 44.6021 47.0771C49.3791 43.6271 54.3761 40.9911 55.4021 41.3641C55.4381 41.5481 55.4741 42.4751 53.6481 45.4751C53.5434 45.649 53.5006 45.8531 53.5265 46.0544C53.5525 46.2556 53.6457 46.4422 53.791 46.5838C53.9363 46.7255 54.1253 46.8138 54.3271 46.8346C54.529 46.8553 54.732 46.8072 54.9031 46.6981C56.374 45.755 57.9984 45.0761 59.7031 44.6921C57.3121 46.4161 55.4421 48.0581 55.2571 49.0881C55.2187 49.2775 55.223 49.4731 55.2697 49.6606C55.3164 49.8481 55.4043 50.0228 55.5271 50.1721C55.816 50.4998 56.1751 50.7581 56.5776 50.9279C56.9801 51.0978 57.4157 51.1747 57.8521 51.1531C59.4886 51.0552 61.0486 50.4269 62.2961 49.3631C64.3201 47.7211 64.8601 45.6931 63.6861 44.1851C65.7151 42.8631 67.9861 41.4771 70.1631 40.2271C70.3693 40.1077 70.5198 39.9113 70.5815 39.6811C70.6431 39.4509 70.611 39.2056 70.4921 38.9991ZM61.1631 47.9651C59.7731 49.0941 57.9291 49.6291 57.1371 49.2021C57.6371 48.4281 59.6061 46.9171 62.1751 45.1851C62.2058 45.2163 62.2342 45.2497 62.2601 45.2851C63.0841 46.3231 61.4911 47.7001 61.1631 47.9651Z" fill="#FE0134"/>
<path d="M62.9121 81.5996H39.7681C38.6635 81.5996 37.7681 82.495 37.7681 83.5996V87.0026C37.7681 88.1072 38.6635 89.0026 39.7681 89.0026H62.9121C64.0166 89.0026 64.9121 88.1072 64.9121 87.0026V83.5996C64.9121 82.495 64.0166 81.5996 62.9121 81.5996Z" fill="#FE0134"/>
<path d="M60.418 57.4434H40.902C39.7974 57.4434 38.902 58.3388 38.902 59.4434V62.6404C38.902 63.7449 39.7974 64.6404 40.902 64.6404H60.418C61.5225 64.6404 62.418 63.7449 62.418 62.6404V59.4434C62.418 58.3388 61.5225 57.4434 60.418 57.4434Z" fill="#FE0134"/>
<path d="M56.073 70.0371H40.902C39.7974 70.0371 38.902 70.9325 38.902 72.0371V75.2341C38.902 76.3387 39.7974 77.2341 40.902 77.2341H56.073C57.1775 77.2341 58.073 76.3387 58.073 75.2341V72.0371C58.073 70.9325 57.1775 70.0371 56.073 70.0371Z" fill="#FE0134"/>
<path d="M35.8891 85.4257C35.6945 85.2618 35.4742 85.131 35.2371 85.0387L36.0021 84.1077C36.1105 83.9757 36.179 83.8155 36.1998 83.6459C36.2205 83.4763 36.1925 83.3043 36.1191 83.15C36.0457 82.9957 35.9299 82.8655 35.7852 82.7746C35.6405 82.6837 35.4729 82.6359 35.3021 82.6367H32.1561C31.9174 82.6367 31.6885 82.7315 31.5197 82.9003C31.3509 83.0691 31.2561 83.298 31.2561 83.5367C31.2561 83.7754 31.3509 84.0043 31.5197 84.1731C31.6885 84.3419 31.9174 84.4367 32.1561 84.4367H33.4061L32.8061 85.1697C32.691 85.3113 32.6216 85.4846 32.6072 85.6665C32.5929 85.8484 32.6341 86.0304 32.7256 86.1884C32.817 86.3463 32.9543 86.4727 33.1192 86.5508C33.2842 86.6289 33.469 86.6551 33.6491 86.6257C34.0152 86.5616 34.3922 86.6218 34.7201 86.7967C34.7601 86.8287 34.8551 86.9087 34.8551 87.2057C34.8386 87.4683 34.7363 87.7182 34.564 87.917C34.3916 88.1157 34.1587 88.2523 33.9011 88.3057C33.4921 88.3867 33.1901 88.1847 32.9881 87.6897C32.9458 87.5768 32.8812 87.4735 32.7982 87.386C32.7153 87.2985 32.6155 87.2286 32.505 87.1804C32.3945 87.1322 32.2754 87.1067 32.1548 87.1054C32.0342 87.1041 31.9146 87.1271 31.8031 87.173C31.6915 87.2188 31.5904 87.2866 31.5055 87.3723C31.4207 87.458 31.354 87.5599 31.3093 87.6719C31.2646 87.7839 31.2429 87.9038 31.2454 88.0243C31.248 88.1449 31.2747 88.2637 31.3241 88.3737C31.4936 88.8767 31.8146 89.3149 32.2431 89.6282C32.6715 89.9415 33.1864 90.1146 33.7171 90.1237C33.8953 90.1251 34.0731 90.1087 34.2481 90.0747C34.9159 89.9417 35.5184 89.5848 35.9559 89.0629C36.3933 88.5411 36.6396 87.8855 36.6541 87.2047C36.6676 86.8699 36.6058 86.5363 36.4735 86.2284C36.3411 85.9206 36.1414 85.6463 35.8891 85.4257V85.4257Z" fill="#FE0134"/>
<path d="M32.506 70.4471C32.2203 70.5916 31.9659 70.7912 31.7576 71.0344C31.5492 71.2776 31.391 71.5596 31.292 71.8641C31.2526 71.9794 31.2369 72.1015 31.2461 72.223C31.2552 72.3444 31.2888 72.4628 31.3451 72.5709C31.4013 72.679 31.4788 72.7745 31.5731 72.8518C31.6673 72.929 31.7762 72.9863 31.8932 73.0201C32.0103 73.054 32.1329 73.0638 32.2539 73.0488C32.3748 73.0339 32.4914 72.9946 32.5966 72.9332C32.7019 72.8719 32.7936 72.7899 32.8662 72.692C32.9388 72.5942 32.9908 72.4826 33.019 72.3641C33.0705 72.2416 33.1603 72.1392 33.2751 72.0721C33.5044 72.0045 33.7511 72.0285 33.963 72.1391C33.4087 73.4911 32.5712 74.7087 31.507 75.7101C31.386 75.8375 31.3049 75.9974 31.2737 76.1703C31.2425 76.3432 31.2626 76.5215 31.3315 76.6831C31.4004 76.8447 31.5151 76.9826 31.6614 77.0798C31.8078 77.177 31.9794 77.2293 32.155 77.2301H35.304C35.5427 77.2301 35.7717 77.1353 35.9404 76.9665C36.1092 76.7977 36.2041 76.5688 36.2041 76.3301C36.2041 76.0914 36.1092 75.8625 35.9404 75.6937C35.7717 75.5249 35.5427 75.4301 35.304 75.4301H34.13C35.052 74.2471 35.947 72.7671 35.73 71.6831C35.6779 71.4234 35.5616 71.1807 35.3919 70.9773C35.2221 70.7739 35.0043 70.616 34.758 70.5181C34.4109 70.3418 34.0291 70.2441 33.64 70.2318C33.2508 70.2195 32.8636 70.293 32.506 70.4471V70.4471Z" fill="#FE0134"/>
<path d="M32.061 59.9424L32.605 59.7084V63.7424C32.605 63.9811 32.6998 64.21 32.8686 64.3788C33.0374 64.5476 33.2663 64.6424 33.505 64.6424C33.7437 64.6424 33.9726 64.5476 34.1414 64.3788C34.3102 64.21 34.405 63.9811 34.405 63.7424V58.3424C34.4051 58.1933 34.3683 58.0466 34.2977 57.9153C34.2271 57.784 34.125 57.6723 34.0006 57.5902C33.8762 57.5081 33.7333 57.4582 33.5849 57.445C33.4364 57.4317 33.2869 57.4556 33.15 57.5144L31.35 58.2884C31.2355 58.3308 31.1308 58.3961 31.0423 58.4803C30.9539 58.5644 30.8835 58.6657 30.8354 58.778C30.7873 58.8902 30.7626 59.0111 30.7627 59.1332C30.7628 59.2553 30.7878 59.3761 30.8361 59.4883C30.8844 59.6004 30.955 59.7016 31.0436 59.7856C31.1323 59.8696 31.2371 59.9346 31.3517 59.9768C31.4663 60.019 31.5882 60.0375 31.7102 60.031C31.8321 60.0246 31.9515 59.9934 32.061 59.9394V59.9424Z" fill="#FE0134"/>
</svg>
