<svg xmlns="http://www.w3.org/2000/svg" width="55" height="55" viewBox="0 0 55 55">
  <g id="Group_37" data-name="Group 37" transform="translate(-2150 378)">
    <g id="Group_34" data-name="Group 34" transform="translate(-2 -2)">
      <rect id="Rectangle_132" data-name="Rectangle 132" width="55" height="55" rx="27.5" transform="translate(2152 -376)" fill="#fff"/>
      <g id="Group_31" data-name="Group 31" transform="translate(83 2.5)">
        <g id="Group_24" data-name="Group 24">
          <path id="Path_20" data-name="Path 20" d="M.725,19.325a19.287,19.287,0,0,0,2.58,9.662L.563,39l10.248-2.687a19.321,19.321,0,0,0,9.238,2.353h.008A19.333,19.333,0,1,0,.725,19.324m6.1,9.157-.383-.608A16.069,16.069,0,1,1,20.057,35.4H20.05a16.046,16.046,0,0,1-8.178-2.239l-.587-.348L5.2,34.408Zm13.23,10.184h0" transform="translate(2078.437 -371.5)" fill="#ff004f"/>
          <path id="Path_21" data-name="Path 21" d="M68.065,68.059c-.362-.8-.743-.821-1.087-.835-.282-.012-.6-.011-.926-.011a1.774,1.774,0,0,0-1.288.6,5.415,5.415,0,0,0-1.691,4.028,9.4,9.4,0,0,0,1.972,5c.242.322,3.342,5.355,8.251,7.291,4.08,1.609,4.911,1.289,5.8,1.209s2.858-1.168,3.26-2.3a4.039,4.039,0,0,0,.282-2.3c-.121-.2-.443-.322-.926-.564s-2.858-1.41-3.3-1.571-.765-.241-1.087.242-1.247,1.571-1.529,1.893-.564.363-1.046.121a13.212,13.212,0,0,1-3.884-2.4,14.546,14.546,0,0,1-2.687-3.345c-.282-.483-.03-.744.212-.985.217-.216.483-.564.725-.846a3.309,3.309,0,0,0,.482-.806.889.889,0,0,0-.04-.846c-.121-.242-1.06-2.63-1.489-3.585" transform="translate(2025.598 -428.314)" fill="#ff004f"/>
        </g>
        <g id="Group_26" data-name="Group 26" transform="translate(-98.239 73)">
          <path id="Path_18" data-name="Path 18" d="M.725,19.325a19.287,19.287,0,0,0,2.58,9.662L.563,39l10.248-2.687a19.321,19.321,0,0,0,9.238,2.353h.008A19.333,19.333,0,1,0,.725,19.324m6.1,9.157-.383-.608A16.069,16.069,0,1,1,20.057,35.4H20.05a16.046,16.046,0,0,1-8.178-2.239l-.587-.348L5.2,34.408Zm13.23,10.184h0" transform="translate(2174.85 -444.5)"/>
          <path id="Path_19" data-name="Path 19" d="M68.065,68.059c-.362-.8-.743-.821-1.087-.835-.282-.012-.6-.011-.926-.011a1.774,1.774,0,0,0-1.288.6,5.415,5.415,0,0,0-1.691,4.028,9.4,9.4,0,0,0,1.972,5c.242.322,3.342,5.355,8.251,7.291,4.08,1.609,4.911,1.289,5.8,1.209s2.858-1.168,3.26-2.3a4.039,4.039,0,0,0,.282-2.3c-.121-.2-.443-.322-.926-.564s-2.858-1.41-3.3-1.571-.765-.241-1.087.242-1.247,1.571-1.529,1.893-.564.363-1.046.121a13.212,13.212,0,0,1-3.884-2.4,14.546,14.546,0,0,1-2.687-3.345c-.282-.483-.03-.744.212-.985.217-.216.483-.564.725-.846a3.309,3.309,0,0,0,.482-.806.889.889,0,0,0-.04-.846c-.121-.242-1.06-2.63-1.489-3.585" transform="translate(2122.011 -501.314)"/>
        </g>
      </g>
    </g>
  </g>
</svg>
